<?xml version="1.0" encoding="UTF-8"?>
<svg height="79.08" viewBox="14.676,37.824,231.155,79.077" width="231.16" xmlns="http://www.w3.org/2000/svg">
 <metadata/>
 <g fill="#000000" transform="matrix(.99252 0 0 .98755 -6.6538456 -3.753267)">
  <path d="m90.481 121.852v-2.97h-9.533v-4.948h8.972v-2.969h-8.972v-4.288h9.566v-2.969h-9.566-2.21-.759v18.144h.726 2.243z"/>
  <path d="m237.896 113.934v7.918h2.967v-18.144h-2.967v7.257h-8.775v-7.257h-3.364v18.144h3.364v-7.918z"/>
  <path d="m38.859 121.852h3.699l-5.462-7.352c2.32-.88 3.938-2.854 3.938-5.15 0-3.115-2.976-5.642-6.646-5.642h-5.426-2.969v18.144h2.969v-6.861h4.799zm-9.897-15.676h5.167c2.065 0 3.74 1.422 3.74 3.174s-1.674 3.174-3.74 3.174h-5.167z"/>
  <path d="m138.449 121.852h3.16l-6.604-18.144h-3.681l-6.604 18.144h3.159l1.633-4.486h7.302zm-8.071-6.863 2.787-7.657 2.787 7.657z"/>
  <path d="m189.273 118.486c-1.627.498-3.299.594-4.685.527-3.528-.168-6.397-2.791-6.397-6.234s2.875-6.228 6.397-6.498c1.716-.133 3.638.261 4.618.857l.941-2.771c-1.481-.797-3.728-.988-5.561-.988-5.574 0-10.094 4.209-10.094 9.4s4.52 9.4 10.094 9.4c2.049 0 3.629-.065 5.281-.755z"/>
  <path d="m22.59 91.06h231.16v1.58h-231.16z"/>
  <path d="m67.644 51.634h-5.102v11.347h-29.556v-14.865h-6.861v29.731h10.292v-6.861c0-2.991 2.199-4.926 5.102-4.926h21.023v11.787h10.204v-21.111c-.001-2.818-2.285-5.102-5.102-5.102z"/>
  <path d="m124.995 77.847h11.348l-28.368-29.731-26.785 29.731h7.996s1.781-2.213 3.929-4.362c2.148-2.148 4.7-3.203 7.603-3.203h5.894v-3.079h-7.837l7.802-8.661z"/>
  <path d="m181.73 69.579c0 1.671-1.582 3.606-4.838 3.606h-18.473c-2.197 0-4.134-.704-4.134-4.134v-20.935h-10.204v29.731h39.057v-8.269z"/>
  <path d="m206.01 63.861c-2.77 0-5.015-1.339-5.015-2.991s2.245-2.991 5.015-2.991 5.014 1.339 5.014 2.991c-.001 1.652-2.247 2.991-5.014 2.991zm40.726-5.102h-6.334c-2.033-8.832-15.573-15.657-31.975-15.657-11.388 0-21.396 3.291-27.133 8.258l1.706 1.99c4.66-4.08 12.771-6.78 21.996-6.78 14.452 0 26.169 6.627 26.169 14.803 0 8.175-11.717 14.802-26.169 14.802-.515 0-1.024-.008-1.533-.025l-.022 2.669c1.625.141 3.291.214 4.986.214 17.074 0 31.047-7.398 32.163-16.756h6.146z"/>
 </g>
</svg>